# Blender v2.77 (sub 0) OBJ File: 'axis.blend'
# www.blender.org
mtllib axis.mtl
o Cone
v 0.742371 -0.075000 0.000000
v 0.999641 0.000000 0.000000
v 0.742371 -0.073559 0.014632
v 0.742371 -0.069291 0.028701
v 0.742371 -0.062360 0.041668
v 0.742371 -0.053033 0.053033
v 0.742371 -0.041668 0.062360
v 0.742371 -0.028701 0.069291
v 0.742371 -0.014632 0.073559
v 0.742371 0.000000 0.075000
v 0.742371 0.014632 0.073559
v 0.742371 0.028701 0.069291
v 0.742371 0.041668 0.062360
v 0.742371 0.053033 0.053033
v 0.742371 0.062360 0.041668
v 0.742371 0.069291 0.028701
v 0.742371 0.073559 0.014632
v 0.742371 0.075000 0.000000
v 0.742371 0.073559 -0.014632
v 0.742371 0.069291 -0.028701
v 0.742371 0.062360 -0.041668
v 0.742371 0.053033 -0.053033
v 0.742371 0.041668 -0.062360
v 0.742371 0.028701 -0.069291
v 0.742371 0.014632 -0.073559
v 0.742371 -0.000000 -0.075000
v 0.742371 -0.014632 -0.073559
v 0.742371 -0.028701 -0.069291
v 0.742371 -0.041668 -0.062360
v 0.742371 -0.053033 -0.053033
v 0.742371 -0.062360 -0.041668
v 0.742371 -0.069291 -0.028701
v 0.742371 -0.073559 -0.014632
v 0.742371 -0.035498 0.000000
v 0.742371 -0.034815 0.006925
v 0.742371 -0.032795 0.013584
v 0.742371 -0.029515 0.019721
v 0.742371 -0.025101 0.025101
v 0.742371 -0.019721 0.029515
v 0.742371 -0.013584 0.032796
v 0.742371 -0.006925 0.034816
v 0.742371 0.000000 0.035498
v 0.742371 0.006925 0.034816
v 0.742371 0.013584 0.032796
v 0.742371 0.019721 0.029515
v 0.742371 0.025101 0.025101
v 0.742371 0.029515 0.019721
v 0.742371 0.032796 0.013584
v 0.742371 0.034816 0.006925
v 0.742371 0.035498 0.000000
v 0.742371 0.034816 -0.006925
v 0.742371 0.032796 -0.013584
v 0.742371 0.029515 -0.019721
v 0.742371 0.025101 -0.025101
v 0.742371 0.019721 -0.029515
v 0.742371 0.013584 -0.032795
v 0.742371 0.006925 -0.034815
v 0.742371 -0.000000 -0.035498
v 0.742371 -0.006925 -0.034815
v 0.742371 -0.013584 -0.032795
v 0.742371 -0.019721 -0.029515
v 0.742371 -0.025101 -0.025100
v 0.742371 -0.029515 -0.019721
v 0.742371 -0.032795 -0.013584
v 0.742371 -0.034815 -0.006925
v -0.000359 -0.035498 -0.000000
v -0.000359 -0.034816 0.006925
v -0.000359 -0.032795 0.013584
v -0.000359 -0.029515 0.019721
v -0.000359 -0.025101 0.025100
v -0.000359 -0.019721 0.029515
v -0.000359 -0.013584 0.032795
v -0.000359 -0.006925 0.034815
v -0.000359 -0.000000 0.035497
v -0.000359 0.006925 0.034815
v -0.000359 0.013584 0.032795
v -0.000359 0.019721 0.029515
v -0.000359 0.025101 0.025100
v -0.000359 0.029515 0.019721
v -0.000359 0.032795 0.013584
v -0.000359 0.034815 0.006925
v -0.000359 0.035498 -0.000000
v -0.000359 0.034815 -0.006925
v -0.000359 0.032795 -0.013584
v -0.000359 0.029515 -0.019722
v -0.000359 0.025101 -0.025101
v -0.000359 0.019721 -0.029515
v -0.000359 0.013584 -0.032796
v -0.000359 0.006925 -0.034816
v -0.000359 -0.000000 -0.035498
v -0.000359 -0.006925 -0.034816
v -0.000359 -0.013584 -0.032796
v -0.000359 -0.019721 -0.029515
v -0.000359 -0.025101 -0.025101
v -0.000359 -0.029515 -0.019721
v -0.000359 -0.032796 -0.013584
v -0.000359 -0.034816 -0.006925
vn 0.2786 -0.9558 0.0941
vn 0.2786 -0.9190 0.2788
vn 0.2786 -0.8470 0.4527
vn 0.2786 -0.7424 0.6093
vn 0.2786 -0.6093 0.7424
vn 0.2786 -0.4527 0.8470
vn 0.2786 -0.2788 0.9190
vn 0.2786 -0.0941 0.9558
vn 0.2786 0.0941 0.9558
vn 0.2786 0.2788 0.9190
vn 0.2786 0.4527 0.8470
vn 0.2786 0.6093 0.7424
vn 0.2786 0.7424 0.6093
vn 0.2786 0.8470 0.4527
vn 0.2786 0.9190 0.2788
vn 0.2786 0.9558 0.0941
vn 0.2786 0.9558 -0.0941
vn 0.2786 0.9190 -0.2788
vn 0.2786 0.8470 -0.4527
vn 0.2786 0.7424 -0.6093
vn 0.2786 0.6093 -0.7424
vn 0.2786 0.4527 -0.8470
vn 0.2786 0.2788 -0.9190
vn 0.2786 0.0941 -0.9558
vn 0.2786 -0.0941 -0.9558
vn 0.2786 -0.2788 -0.9190
vn 0.2786 -0.4527 -0.8470
vn 0.2786 -0.6093 -0.7424
vn 0.2786 -0.7424 -0.6093
vn 0.2786 -0.8470 -0.4527
vn 0.2786 -0.9190 -0.2788
vn 0.2786 -0.9558 -0.0941
vn -1.0000 -0.0000 0.0000
vn -0.0000 -0.9569 0.2903
vn 0.0000 -0.7730 -0.6344
vn -0.0000 0.9952 0.0980
vn -0.0000 -0.8819 0.4714
vn 0.0000 -0.8819 -0.4714
vn -0.0000 0.9952 -0.0980
vn -0.0000 -0.7730 0.6344
vn 0.0000 -0.9569 -0.2903
vn 0.0000 0.9569 -0.2903
vn -0.0000 -0.6344 0.7730
vn 0.0000 -0.9952 -0.0980
vn 0.0000 0.8819 -0.4714
vn -0.0000 -0.4714 0.8819
vn 0.0000 0.7730 -0.6344
vn -0.0000 -0.2903 0.9569
vn 0.0000 0.6344 -0.7730
vn -0.0000 -0.0980 0.9952
vn 0.0000 0.4714 -0.8819
vn -0.0000 0.0980 0.9952
vn 0.0000 0.2903 -0.9569
vn -0.0000 0.2903 0.9569
vn 0.0000 0.0980 -0.9952
vn -0.0000 0.4714 0.8819
vn 0.0000 -0.0980 -0.9952
vn -0.0000 0.6344 0.7730
vn 0.0000 -0.2903 -0.9569
vn -0.0000 0.7730 0.6344
vn 0.0000 -0.4714 -0.8819
vn -0.0000 0.8819 0.4714
vn 0.0000 -0.9952 0.0980
vn 0.0000 -0.6344 -0.7730
vn -0.0000 0.9569 0.2903
usemtl None
s off
f 1//1 2//1 3//1
f 3//2 2//2 4//2
f 4//3 2//3 5//3
f 5//4 2//4 6//4
f 6//5 2//5 7//5
f 7//6 2//6 8//6
f 8//7 2//7 9//7
f 9//8 2//8 10//8
f 10//9 2//9 11//9
f 11//10 2//10 12//10
f 12//11 2//11 13//11
f 13//12 2//12 14//12
f 14//13 2//13 15//13
f 15//14 2//14 16//14
f 16//15 2//15 17//15
f 17//16 2//16 18//16
f 18//17 2//17 19//17
f 19//18 2//18 20//18
f 20//19 2//19 21//19
f 21//20 2//20 22//20
f 22//21 2//21 23//21
f 23//22 2//22 24//22
f 24//23 2//23 25//23
f 25//24 2//24 26//24
f 26//25 2//25 27//25
f 27//26 2//26 28//26
f 28//27 2//27 29//27
f 29//28 2//28 30//28
f 30//29 2//29 31//29
f 31//30 2//30 32//30
f 32//31 2//31 33//31
f 33//32 2//32 1//32
f 27//33 28//33 60//33 59//33
f 35//34 36//34 68//34 67//34
f 7//33 8//33 40//33 39//33
f 14//33 15//33 47//33 46//33
f 21//33 22//33 54//33 53//33
f 1//33 3//33 35//33 34//33
f 28//33 29//33 61//33 60//33
f 8//33 9//33 41//33 40//33
f 15//33 16//33 48//33 47//33
f 22//33 23//33 55//33 54//33
f 29//33 30//33 62//33 61//33
f 9//33 10//33 42//33 41//33
f 16//33 17//33 49//33 48//33
f 23//33 24//33 56//33 55//33
f 3//33 4//33 36//33 35//33
f 30//33 31//33 63//33 62//33
f 10//33 11//33 43//33 42//33
f 17//33 18//33 50//33 49//33
f 24//33 25//33 57//33 56//33
f 4//33 5//33 37//33 36//33
f 31//33 32//33 64//33 63//33
f 11//33 12//33 44//33 43//33
f 18//33 19//33 51//33 50//33
f 25//33 26//33 58//33 57//33
f 5//33 6//33 38//33 37//33
f 32//33 33//33 65//33 64//33
f 12//33 13//33 45//33 44//33
f 19//33 20//33 52//33 51//33
f 33//33 1//33 34//33 65//33
f 26//33 27//33 59//33 58//33
f 6//33 7//33 39//33 38//33
f 13//33 14//33 46//33 45//33
f 20//33 21//33 53//33 52//33
f 66//33 67//33 68//33 69//33 70//33 71//33 72//33 73//33 74//33 75//33 76//33 77//33 78//33 79//33 80//33 81//33 82//33 83//33 84//33 85//33 86//33 87//33 88//33 89//33 90//33 91//33 92//33 93//33 94//33 95//33 96//33 97//33
f 62//35 63//35 95//35 94//35
f 49//36 50//36 82//36 81//36
f 36//37 37//37 69//37 68//37
f 63//38 64//38 96//38 95//38
f 50//39 51//39 83//39 82//39
f 37//40 38//40 70//40 69//40
f 64//41 65//41 97//41 96//41
f 51//42 52//42 84//42 83//42
f 38//43 39//43 71//43 70//43
f 65//44 34//44 66//44 97//44
f 52//45 53//45 85//45 84//45
f 39//46 40//46 72//46 71//46
f 53//47 54//47 86//47 85//47
f 40//48 41//48 73//48 72//48
f 54//49 55//49 87//49 86//49
f 41//50 42//50 74//50 73//50
f 55//51 56//51 88//51 87//51
f 42//52 43//52 75//52 74//52
f 56//53 57//53 89//53 88//53
f 43//54 44//54 76//54 75//54
f 57//55 58//55 90//55 89//55
f 44//56 45//56 77//56 76//56
f 58//57 59//57 91//57 90//57
f 45//58 46//58 78//58 77//58
f 59//59 60//59 92//59 91//59
f 46//60 47//60 79//60 78//60
f 60//61 61//61 93//61 92//61
f 47//62 48//62 80//62 79//62
f 34//63 35//63 67//63 66//63
f 61//64 62//64 94//64 93//64
f 48//65 49//65 81//65 80//65
